<svg width="20" height="20" viewBox="0 0 20 20" fill="none" xmlns="http://www.w3.org/2000/svg">
<g clip-path="url(#clip0_3_1754)">
<path d="M9.999 17.4483C11.2489 17.4483 12.2904 18.3315 13.332 18.3315C15.8318 18.3315 18.3315 11.6655 18.3315 8.14919C18.3031 7.0699 17.8492 6.04559 17.0688 5.29951C16.2884 4.55344 15.2447 4.14609 14.1653 4.16625C12.3154 4.16625 10.8323 5.36613 9.999 5.83275C9.16575 5.36613 7.68257 4.16625 5.83275 4.16625C4.75265 4.14388 3.70772 4.5505 2.92682 5.29704C2.14592 6.04358 1.69273 7.06917 1.6665 8.14919C1.6665 11.6655 4.16625 18.3315 6.666 18.3315C7.70757 18.3315 8.74913 17.4483 9.999 17.4483Z" stroke="white" stroke-width="1.6665" stroke-linecap="round" stroke-linejoin="round"/>
<path d="M8.33252 1.6665C9.16577 2.08313 9.99902 3.333 9.99902 5.83275" stroke="white" stroke-width="1.6665" stroke-linecap="round" stroke-linejoin="round"/>
</g>
<defs>
<clipPath id="clip0_3_1754">
<rect width="19.998" height="19.998" fill="white"/>
</clipPath>
</defs>
</svg>
